<svg version="1.1" id="Layer_1" xmlns="http://www.w3.org/2000/svg" xmlns:xlink="http://www.w3.org/1999/xlink" x="0px" y="0px"
	 width="100%" viewBox="0 0 512 512" enable-background="new 0 0 512 512" xml:space="preserve">
<path fill="#005D05" opacity="1.000000" stroke="none" 
	d="
M239.000000,513.000000 
	C159.352646,513.000000 80.205292,513.000000 1.028970,513.000000 
	C1.028970,342.394287 1.028970,171.788574 1.028970,1.091425 
	C171.564041,1.091425 342.128143,1.091425 512.846130,1.091425 
	C512.846130,171.666565 512.846130,342.333252 512.846130,513.000000 
	C421.788544,513.000000 330.644257,513.000000 239.000000,513.000000 
M237.829208,257.095154 
	C237.889725,240.012161 228.835007,228.696259 214.513504,221.031693 
	C202.371201,214.533386 189.101318,211.319672 175.639267,208.916046 
	C170.379028,207.976837 168.875183,209.255066 170.298660,214.368851 
	C173.634506,226.352737 176.787796,238.459229 181.255997,250.037155 
	C186.346893,263.228699 196.462540,271.615906 210.345520,275.077728 
	C225.301086,278.807007 234.521988,273.006622 237.829208,257.095154 
M291.292877,275.992340 
	C304.480072,274.523987 314.221710,267.680542 321.164856,256.634064 
	C328.922424,244.291733 332.297913,230.395081 335.158691,216.336685 
	C336.671326,208.903152 335.443573,207.448608 328.026459,209.284027 
	C318.514771,211.637817 309.017365,214.189896 299.744659,217.336823 
	C284.502289,222.509766 273.493042,232.315735 269.164825,248.320801 
	C264.648956,265.019928 273.079865,275.856659 291.292877,275.992340 
M245.134293,252.500000 
	C245.134262,264.323608 245.093445,276.147522 245.171829,287.970612 
	C245.185974,290.102020 245.449020,292.297577 246.020615,294.345337 
	C247.099426,298.210114 250.064377,299.219452 253.786728,299.036316 
	C257.313507,298.862793 259.380859,297.085205 260.034882,293.742798 
	C260.478668,291.474670 260.828674,289.143829 260.831635,286.840515 
	C260.879822,249.371353 260.869904,211.902145 260.862305,174.432938 
	C260.860748,166.685547 257.836517,162.059967 252.886307,162.146423 
	C247.664459,162.237625 245.139145,166.259552 245.136841,174.563232 
	C245.129700,200.208817 245.134506,225.854416 245.134293,252.500000 
M268.902802,187.213486 
	C270.936737,192.986893 275.273834,196.061081 281.067322,197.002441 
	C291.959167,198.772171 300.622620,194.309662 307.523254,186.360352 
	C317.310699,175.085587 319.918518,160.875397 322.690674,146.837601 
	C323.418335,143.152985 320.678558,142.385483 318.010010,143.164017 
	C307.680756,146.177536 296.980896,148.478668 287.263977,152.901413 
	C273.016724,159.386230 265.979156,173.476669 268.902802,187.213486 
M272.954773,123.871216 
	C270.622955,110.422226 263.672363,99.105263 256.290131,88.013481 
	C254.148163,84.795166 251.243179,85.010498 249.541718,88.142365 
	C244.247864,97.886757 238.405991,107.489059 234.530487,117.805313 
	C230.520233,128.480270 232.868378,139.222946 239.910049,148.425781 
	C246.851074,157.497086 258.227570,157.674866 265.599762,148.958679 
	C271.489288,141.995483 273.372772,133.704880 272.954773,123.871216 
M188.429840,166.997559 
	C192.952484,182.559769 201.469086,194.117111 218.504868,197.309799 
	C226.848419,198.873489 234.336594,194.735474 236.920715,186.736115 
	C239.895721,177.526764 236.669174,169.407867 230.971085,162.658035 
	C219.575851,149.159500 203.072189,146.180298 186.875366,143.130341 
	C183.025528,142.405396 182.659470,145.529724 183.407104,148.463898 
	C184.922318,154.410614 186.567230,160.324265 188.429840,166.997559 
M191.656540,340.050873 
	C194.508682,333.490845 189.619400,328.755341 183.096939,328.188354 
	C177.533249,327.704620 171.894135,328.088348 165.918503,328.088348 
	C165.918503,337.880127 165.918503,347.317505 165.918503,356.754883 
	C165.918503,358.040710 165.918503,359.326508 165.918503,360.787537 
	C169.246353,360.787537 172.149338,360.787537 175.526459,360.787537 
	C175.526459,355.504822 175.526459,350.420654 175.526459,344.619263 
	C186.123001,346.860626 179.210342,356.345459 183.318054,360.713379 
	C186.425247,360.713379 189.640015,360.713379 193.150497,360.713379 
	C190.408783,355.133118 193.456284,347.889099 186.706345,344.349823 
	C188.435577,342.932007 189.829605,341.789001 191.656540,340.050873 
M353.918518,352.461487 
	C353.918518,355.234497 353.918518,358.007538 353.918518,360.686951 
	C357.388550,360.686951 360.280396,360.686951 363.663330,360.686951 
	C363.663330,355.302002 363.663330,350.223602 363.663330,344.355988 
	C373.874023,346.997131 367.307922,356.409637 371.318787,360.808472 
	C374.602936,360.808472 377.733643,360.808472 381.141418,360.808472 
	C378.392944,355.309540 381.548615,347.972504 374.324463,344.212738 
	C378.704712,342.093964 381.450378,339.356689 380.126923,334.596741 
	C378.788971,329.784515 374.699158,328.415131 370.468689,328.119415 
	C365.059174,327.741241 359.603210,328.027649 353.918518,328.027649 
	C353.918518,336.193329 353.918518,343.831085 353.918518,352.461487 
M274.097137,378.017090 
	C267.416718,377.554291 260.736298,377.091522 253.918488,376.619202 
	C253.918488,383.029297 253.918472,388.354004 253.918472,393.678711 
	C253.918472,399.087402 253.918488,404.496094 253.918488,410.004028 
	C258.468170,410.004028 262.289154,410.008514 266.110107,410.003082 
	C274.952820,409.990509 279.589691,407.092682 281.594055,400.333771 
	C284.319153,391.144348 281.741333,382.685028 274.097137,378.017090 
M143.387009,337.430695 
	C143.958969,333.895172 145.240128,330.274109 149.447174,331.256226 
	C151.949188,331.840302 153.906998,334.755707 156.109467,336.622986 
	C155.880157,337.096008 155.650833,337.569061 155.421509,338.042114 
	C156.728378,337.311493 158.035263,336.580872 160.930832,334.962097 
	C157.069748,332.250946 154.529129,329.417755 151.417725,328.481659 
	C142.569595,325.819611 134.215118,331.880005 132.683380,341.401581 
	C130.952179,352.162933 136.290482,360.366241 145.875626,360.907715 
	C150.703781,361.180481 155.592590,360.379639 160.336212,360.071930 
	C160.336212,354.638733 160.336212,348.905945 160.336212,342.981873 
	C156.824631,342.981873 153.665344,342.855896 150.525070,343.045227 
	C149.306107,343.118713 148.130096,343.904724 146.934509,344.366150 
	C148.043716,344.931183 149.142410,345.518494 150.267456,346.049988 
	C150.697662,346.253204 151.188141,346.328857 151.792068,346.503387 
	C151.792068,348.353119 151.838699,350.179749 151.780945,352.003113 
	C151.698013,354.621338 152.059509,358.199402 148.275208,357.704346 
	C146.440262,357.464325 143.847290,354.637817 143.550781,352.685608 
	C142.835861,347.978302 143.271286,343.096283 143.387009,337.430695 
M263.574982,351.124603 
	C263.053925,355.731537 260.194031,357.380096 255.921585,356.957397 
	C251.309860,356.501160 251.219498,352.971741 251.203888,349.535736 
	C251.171646,342.439941 251.194153,335.343964 251.194153,328.263245 
	C247.693741,328.263245 244.786240,328.263245 241.648605,328.263245 
	C241.648605,336.172150 241.390244,343.824341 241.728149,351.450165 
	C242.012192,357.860870 246.279007,360.928528 253.926880,361.008545 
	C261.775085,361.090668 266.502411,357.907257 266.802124,351.549316 
	C267.168365,343.778931 266.889313,335.978119 266.889313,328.118195 
	C263.703766,328.733185 263.703766,328.733185 263.574982,351.124603 
M323.542023,338.537476 
	C323.564148,342.700531 323.396332,346.875275 323.651337,351.024017 
	C324.074158,357.903687 328.282867,361.068787 336.491577,361.008545 
	C344.189178,360.952026 348.620605,357.558472 348.869354,350.993622 
	C349.127716,344.174927 349.004486,337.337219 348.847107,330.512451 
	C348.824799,329.545624 347.665466,328.605011 347.032440,327.652283 
	C346.571503,327.879944 346.110596,328.107605 345.649689,328.335236 
	C345.649689,335.139221 345.694580,341.943573 345.636261,348.747040 
	C345.584564,354.778961 343.608307,357.067841 338.803528,356.997925 
	C333.139709,356.915466 333.213837,352.879272 333.200409,348.924530 
	C333.176941,342.006348 333.193878,335.088013 333.193878,328.308350 
	C329.620758,328.308350 326.721558,328.308350 323.542084,328.308350 
	C323.542084,331.599091 323.542084,334.580414 323.542023,338.537476 
M244.650772,380.008881 
	C244.649536,386.174683 244.731354,392.341980 244.621796,398.505859 
	C244.527664,403.801636 242.507278,405.922760 238.037415,406.004333 
	C232.820587,406.099426 232.190552,402.655640 232.193008,398.651337 
	C232.197388,391.542450 232.194229,384.433533 232.194229,377.213776 
	C228.767990,377.213776 225.851028,377.213776 222.687698,377.213776 
	C222.687698,385.236511 222.389343,393.056183 222.782135,400.841003 
	C223.096069,407.062714 227.581589,410.025330 235.325363,410.008514 
	C242.829315,409.992218 247.494980,406.801544 247.792007,400.645721 
	C248.167953,392.854309 247.882828,385.031006 247.882828,375.525146 
	C246.144043,377.458252 245.399506,378.285980 244.650772,380.008881 
M328.342407,391.804993 
	C332.257782,394.157776 336.327759,396.297333 340.012207,398.968658 
	C341.479431,400.032440 342.093964,402.272400 343.096680,403.976929 
	C341.387085,404.978516 339.751556,406.658173 337.954041,406.854431 
	C332.584351,407.440643 331.073547,405.464020 330.467377,398.174316 
	C325.816345,398.076385 325.793182,400.810516 326.912506,404.120941 
	C328.422241,408.586090 334.605713,411.033051 341.430786,409.939728 
	C347.121552,409.028076 351.217834,405.528900 350.862335,400.815155 
	C350.659302,398.123291 349.211151,395.090179 347.372589,393.081024 
	C345.586975,391.129730 342.613098,390.236786 340.109497,388.981873 
	C338.488068,388.169098 336.582123,387.798798 335.165497,386.744202 
	C334.132965,385.975494 332.899414,384.171204 333.177124,383.263550 
	C333.563416,382.000977 335.119873,380.608337 336.454651,380.212341 
	C341.107697,378.831940 344.371216,380.951355 346.091492,386.405365 
	C347.234253,385.912628 349.264191,385.440979 349.265869,384.962128 
	C349.271332,383.432281 348.875305,381.652222 348.002502,380.414154 
	C345.253296,376.514374 336.609253,375.727325 331.416229,378.678955 
	C326.835266,381.282715 325.781647,385.071930 328.342407,391.804993 
M182.724701,406.431061 
	C180.020477,406.176971 176.669724,406.796448 174.800980,405.413452 
	C173.068069,404.131042 172.918503,400.709076 172.051743,398.170685 
	C167.455246,398.192749 167.900146,401.197266 168.979172,404.310669 
	C170.457901,408.577484 176.507721,410.920990 183.183197,409.984009 
	C188.851425,409.188385 193.175964,405.683105 192.837189,401.027588 
	C192.631180,398.196930 191.054886,395.027405 189.121246,392.890381 
	C187.359253,390.942993 184.300064,390.152374 181.783585,388.910767 
	C180.148697,388.104065 178.239273,387.675873 176.873184,386.562408 
	C175.895569,385.765564 175.090302,384.069031 175.193695,382.858032 
	C175.272476,381.935059 176.758606,380.776428 177.859955,380.358490 
	C182.509766,378.593903 186.373260,380.825806 187.855637,385.904999 
	C191.956573,386.720459 192.279160,384.417389 190.878571,381.688965 
	C188.536880,377.127258 184.055023,376.846741 179.620804,377.005707 
	C174.023026,377.206360 169.829956,380.189606 168.980530,384.374939 
	C167.980637,389.301788 170.200546,393.336914 175.509720,395.995056 
	C177.877060,397.180298 180.482941,397.941528 182.723373,399.314758 
	C185.634048,401.098846 186.544983,403.487701 182.724701,406.431061 
M122.450958,360.366608 
	C125.595383,360.626312 128.739807,360.886017 132.378693,361.186554 
	C129.083633,349.533997 126.036995,338.759918 123.051773,328.203003 
	C119.851173,328.203003 117.230049,328.203003 114.439415,328.203003 
	C111.198433,339.071503 108.003365,349.785980 104.808304,360.500458 
	C105.279343,360.837372 105.750389,361.174255 106.221436,361.511139 
	C107.284775,360.240662 108.934105,359.114410 109.289680,357.669739 
	C110.034027,354.645660 111.555321,353.620453 114.535736,353.972015 
	C116.471970,354.200409 118.457001,354.015045 120.506180,354.015045 
	C121.122375,356.111908 121.629433,357.837341 122.450958,360.366608 
M211.387619,346.315125 
	C211.513397,347.304993 211.607269,348.300171 211.769852,349.283966 
	C213.554947,360.085602 227.280182,365.198090 235.631073,357.974274 
	C237.325836,356.508240 238.369476,353.915710 238.963242,351.646240 
	C239.687775,348.877014 238.350739,347.329803 235.200851,348.214874 
	C235.116226,349.743317 235.566467,351.603119 234.839355,352.625824 
	C233.406921,354.640594 231.539139,357.162537 229.438599,357.633484 
	C227.680969,358.027588 224.134903,356.292236 223.459702,354.646759 
	C220.660049,347.824066 220.764389,340.644531 223.806931,333.859161 
	C224.423553,332.484039 227.020477,331.062897 228.500244,331.252930 
	C230.223236,331.474182 231.944107,333.249573 233.232391,334.728210 
	C233.978561,335.584656 233.871628,337.184387 234.161896,338.510315 
	C238.073715,338.042175 238.884369,335.396667 236.885803,333.084381 
	C234.914978,330.804260 231.792786,328.569702 228.925858,328.187012 
	C219.322571,326.905060 211.328415,333.296539 211.387619,346.315125 
M313.504639,409.999268 
	C315.670593,409.999237 317.863525,410.209045 319.994324,409.935333 
	C321.822784,409.700500 323.580200,408.912781 325.369049,408.369537 
	C323.658539,407.913269 321.968689,407.198486 320.232819,407.059906 
	C317.463074,406.838745 314.662750,407.000763 311.704895,407.000763 
	C311.704895,402.129883 311.704895,397.711517 311.704895,392.871002 
	C315.072357,392.871002 318.176025,392.871002 321.279663,392.871002 
	C321.396515,392.332123 321.513397,391.793213 321.630249,391.254333 
	C319.062286,388.511749 314.924377,390.959351 311.684570,389.574707 
	C311.684570,386.542084 311.684570,383.461609 311.684570,380.493134 
	C315.542328,378.770721 320.323181,381.849518 324.527313,377.304504 
	C316.216583,377.304504 309.173126,377.304504 302.247620,377.304504 
	C302.247620,388.341736 302.247620,399.072571 302.247620,409.999268 
	C305.884369,409.999268 309.199219,409.999268 313.504639,409.999268 
M384.924194,357.360046 
	C385.062622,359.012573 384.157227,361.126160 387.334473,361.044800 
	C393.662354,360.882721 399.998657,361.058594 406.327637,360.919006 
	C407.152039,360.900787 407.953522,359.844269 408.765625,359.268707 
	C408.603241,358.816040 408.440887,358.363373 408.278503,357.910706 
	C403.743896,357.910706 399.209320,357.910706 394.659973,357.910706 
	C394.659973,352.991425 394.659973,348.712555 394.659973,344.468018 
	C403.748657,343.218689 403.748657,343.218689 403.958130,340.839478 
	C400.855072,340.839478 397.782684,340.839478 394.809296,340.839478 
	C394.809296,337.283417 394.809296,334.231812 394.809296,330.995941 
	C398.173340,330.995941 401.170959,331.080353 404.157623,330.936890 
	C404.909607,330.900757 405.626526,330.134857 406.359558,329.704315 
	C405.598846,329.137421 404.848236,328.095154 404.075836,328.078674 
	C397.798798,327.945099 391.517639,328.003632 384.924133,328.003632 
	C384.924133,337.793488 384.924133,347.090332 384.924194,357.360046 
M213.068253,408.290527 
	C213.068253,398.899719 213.068253,389.508942 213.068253,380.166718 
	C220.338379,379.854126 220.338379,379.854126 220.996567,377.287109 
	C212.240021,377.287109 203.529205,377.287109 194.818390,377.287109 
	C194.688812,377.856140 194.559250,378.425171 194.429672,378.994232 
	C197.145996,379.505188 199.862305,380.016144 202.996918,380.605774 
	C202.996918,390.236237 202.996918,399.954407 202.996918,410.312439 
	C206.636826,409.926392 209.816162,409.589203 213.068253,408.290527 
M302.931702,359.286774 
	C306.200958,360.053406 309.470215,360.820038 313.367920,361.734039 
	C313.367920,350.569305 313.367920,340.844482 313.367920,331.580078 
	C316.032928,329.876526 319.917542,332.988098 321.547394,328.278137 
	C312.251678,328.278137 303.536499,328.278137 294.821350,328.278137 
	C294.689178,328.845184 294.557007,329.412231 294.424866,329.979248 
	C297.137421,330.497223 299.849976,331.015198 302.924805,331.602356 
	C302.924805,340.446838 302.924805,349.385101 302.931702,359.286774 
M274.668610,328.006805 
	C274.089478,328.602448 273.011566,329.193085 273.005524,329.794556 
	C272.902008,340.051147 272.931244,350.309143 272.931244,360.995728 
	C280.242950,360.995728 287.177734,361.059296 294.107697,360.905670 
	C294.871796,360.888733 295.608337,359.628174 296.357666,358.944397 
	C296.123016,358.605927 295.888367,358.267487 295.653748,357.929016 
	C291.393402,357.929016 287.133057,357.929016 282.446472,357.929016 
	C282.446472,347.850616 282.446472,338.127167 282.446472,328.001282 
	C279.884735,328.001282 277.758911,328.001282 274.668610,328.006805 
M286.642029,409.939880 
	C289.562805,409.939880 292.483582,409.939880 295.375488,409.939880 
	C295.375488,398.642029 295.375488,387.925293 295.375488,377.214935 
	C292.115387,377.214935 289.184906,377.214935 285.980988,377.214935 
	C285.980988,388.047668 285.980988,398.648895 286.642029,409.939880 
M206.699005,333.680420 
	C206.699005,331.898743 206.699005,330.117096 206.699005,328.330750 
	C203.113205,328.330750 200.070023,328.330750 197.225128,328.330750 
	C197.225128,339.405762 197.225128,350.128693 197.225128,360.744568 
	C200.474106,360.744568 203.393555,360.744568 206.699005,360.744568 
	C206.699005,351.863617 206.699005,343.251556 206.699005,333.680420 
z"/>
<path fill="#89CA56" opacity="1.000000" stroke="none" 
	d="
M237.770874,257.520203 
	C234.521988,273.006622 225.301086,278.807007 210.345520,275.077728 
	C196.462540,271.615906 186.346893,263.228699 181.255997,250.037155 
	C176.787796,238.459229 173.634506,226.352737 170.298660,214.368851 
	C168.875183,209.255066 170.379028,207.976837 175.639267,208.916046 
	C189.101318,211.319672 202.371201,214.533386 214.513504,221.031693 
	C228.835007,228.696259 237.889725,240.012161 237.770874,257.520203 
z"/>
<path fill="#579B1F" opacity="1.000000" stroke="none" 
	d="
M290.844727,275.995697 
	C273.079865,275.856659 264.648956,265.019928 269.164825,248.320801 
	C273.493042,232.315735 284.502289,222.509766 299.744659,217.336823 
	C309.017365,214.189896 318.514771,211.637817 328.026459,209.284027 
	C335.443573,207.448608 336.671326,208.903152 335.158691,216.336685 
	C332.297913,230.395081 328.922424,244.291733 321.164856,256.634064 
	C314.221710,267.680542 304.480072,274.523987 290.844727,275.995697 
z"/>
<path fill="#547D37" opacity="1.000000" stroke="none" 
	d="
M245.134491,252.000000 
	C245.134506,225.854416 245.129700,200.208817 245.136841,174.563232 
	C245.139145,166.259552 247.664459,162.237625 252.886307,162.146423 
	C257.836517,162.059967 260.860748,166.685547 260.862305,174.432938 
	C260.869904,211.902145 260.879822,249.371353 260.831635,286.840515 
	C260.828674,289.143829 260.478668,291.474670 260.034882,293.742798 
	C259.380859,297.085205 257.313507,298.862793 253.786728,299.036316 
	C250.064377,299.219452 247.099426,298.210114 246.020615,294.345337 
	C245.449020,292.297577 245.185974,290.102020 245.171829,287.970612 
	C245.093445,276.147522 245.134262,264.323608 245.134491,252.000000 
z"/>
<path fill="#88CA56" opacity="1.000000" stroke="none" 
	d="
M268.781006,186.823181 
	C265.979156,173.476669 273.016724,159.386230 287.263977,152.901413 
	C296.980896,148.478668 307.680756,146.177536 318.010010,143.164017 
	C320.678558,142.385483 323.418335,143.152985 322.690674,146.837601 
	C319.918518,160.875397 317.310699,175.085587 307.523254,186.360352 
	C300.622620,194.309662 291.959167,198.772171 281.067322,197.002441 
	C275.273834,196.061081 270.936737,192.986893 268.781006,186.823181 
z"/>
<path fill="#8CD254" opacity="1.000000" stroke="none" 
	d="
M272.974304,124.322052 
	C273.372772,133.704880 271.489288,141.995483 265.599762,148.958679 
	C258.227570,157.674866 246.851074,157.497086 239.910049,148.425781 
	C232.868378,139.222946 230.520233,128.480270 234.530487,117.805313 
	C238.405991,107.489059 244.247864,97.886757 249.541718,88.142365 
	C251.243179,85.010498 254.148163,84.795166 256.290131,88.013481 
	C263.672363,99.105263 270.622955,110.422226 272.974304,124.322052 
z"/>
<path fill="#579B1F" opacity="1.000000" stroke="none" 
	d="
M188.294266,166.624557 
	C186.567230,160.324265 184.922318,154.410614 183.407104,148.463898 
	C182.659470,145.529724 183.025528,142.405396 186.875366,143.130341 
	C203.072189,146.180298 219.575851,149.159500 230.971085,162.658035 
	C236.669174,169.407867 239.895721,177.526764 236.920715,186.736115 
	C234.336594,194.735474 226.848419,198.873489 218.504868,197.309799 
	C201.469086,194.117111 192.952484,182.559769 188.294266,166.624557 
z"/>
<path fill="#FDFDFD" opacity="1.000000" stroke="none" 
	d="
M191.440094,340.348450 
	C189.829605,341.789001 188.435577,342.932007 186.706345,344.349823 
	C193.456284,347.889099 190.408783,355.133118 193.150497,360.713379 
	C189.640015,360.713379 186.425247,360.713379 183.318054,360.713379 
	C179.210342,356.345459 186.123001,346.860626 175.526459,344.619263 
	C175.526459,350.420654 175.526459,355.504822 175.526459,360.787537 
	C172.149338,360.787537 169.246353,360.787537 165.918503,360.787537 
	C165.918503,359.326508 165.918503,358.040710 165.918503,356.754883 
	C165.918503,347.317505 165.918503,337.880127 165.918503,328.088348 
	C171.894135,328.088348 177.533249,327.704620 183.096939,328.188354 
	C189.619400,328.755341 194.508682,333.490845 191.440094,340.348450 
M179.083954,331.041809 
	C177.967438,331.041809 176.850906,331.041809 175.569229,331.041809 
	C175.569229,334.828156 175.569229,338.251160 175.569229,343.412323 
	C178.577286,341.491943 181.528229,340.620056 182.544296,338.715759 
	C183.971283,336.041382 183.297821,332.850739 179.083954,331.041809 
z"/>
<path fill="#FDFDFD" opacity="1.000000" stroke="none" 
	d="
M353.918518,351.965179 
	C353.918518,343.831085 353.918518,336.193329 353.918518,328.027649 
	C359.603210,328.027649 365.059174,327.741241 370.468689,328.119415 
	C374.699158,328.415131 378.788971,329.784515 380.126923,334.596741 
	C381.450378,339.356689 378.704712,342.093964 374.324463,344.212738 
	C381.548615,347.972504 378.392944,355.309540 381.141418,360.808472 
	C377.733643,360.808472 374.602936,360.808472 371.318787,360.808472 
	C367.307922,356.409637 373.874023,346.997131 363.663330,344.355988 
	C363.663330,350.223602 363.663330,355.302002 363.663330,360.686951 
	C360.280396,360.686951 357.388550,360.686951 353.918518,360.686951 
	C353.918518,358.007538 353.918518,355.234497 353.918518,351.965179 
M364.571655,330.998810 
	C364.025330,334.524841 363.479034,338.050873 362.926819,341.615082 
	C368.766846,342.095154 370.672577,340.996552 370.983002,337.335968 
	C371.319153,333.371674 369.705780,330.962250 364.571655,330.998810 
z"/>
<path fill="#FDFDFD" opacity="1.000000" stroke="none" 
	d="
M274.479919,378.130798 
	C281.741333,382.685028 284.319153,391.144348 281.594055,400.333771 
	C279.589691,407.092682 274.952820,409.990509 266.110107,410.003082 
	C262.289154,410.008514 258.468170,410.004028 253.918488,410.004028 
	C253.918488,404.496094 253.918472,399.087402 253.918472,393.678711 
	C253.918472,388.354004 253.918488,383.029297 253.918488,376.619202 
	C260.736298,377.091522 267.416718,377.554291 274.479919,378.130798 
M272.060455,388.431702 
	C271.152130,380.696289 269.615448,379.284454 263.550659,380.699554 
	C263.550659,389.309570 263.550659,397.936340 263.550659,406.538605 
	C268.948944,407.280212 271.098572,406.074158 271.724243,401.225708 
	C272.232086,397.289948 272.001282,393.258850 272.060455,388.431702 
z"/>
<path fill="#F5F9F5" opacity="1.000000" stroke="none" 
	d="
M143.314911,337.857727 
	C143.271286,343.096283 142.835861,347.978302 143.550781,352.685608 
	C143.847290,354.637817 146.440262,357.464325 148.275208,357.704346 
	C152.059509,358.199402 151.698013,354.621338 151.780945,352.003113 
	C151.838699,350.179749 151.792068,348.353119 151.792068,346.503387 
	C151.188141,346.328857 150.697662,346.253204 150.267456,346.049988 
	C149.142410,345.518494 148.043716,344.931183 146.934509,344.366150 
	C148.130096,343.904724 149.306107,343.118713 150.525070,343.045227 
	C153.665344,342.855896 156.824631,342.981873 160.336212,342.981873 
	C160.336212,348.905945 160.336212,354.638733 160.336212,360.071930 
	C155.592590,360.379639 150.703781,361.180481 145.875626,360.907715 
	C136.290482,360.366241 130.952179,352.162933 132.683380,341.401581 
	C134.215118,331.880005 142.569595,325.819611 151.417725,328.481659 
	C154.529129,329.417755 157.069748,332.250946 160.930832,334.962097 
	C158.035263,336.580872 156.728378,337.311493 155.421509,338.042114 
	C155.650833,337.569061 155.880157,337.096008 156.109467,336.622986 
	C153.906998,334.755707 151.949188,331.840302 149.447174,331.256226 
	C145.240128,330.274109 143.958969,333.895172 143.314911,337.857727 
z"/>
<path fill="#FAFCFA" opacity="1.000000" stroke="none" 
	d="
M263.607971,350.663452 
	C263.703766,328.733185 263.703766,328.733185 266.889313,328.118195 
	C266.889313,335.978119 267.168365,343.778931 266.802124,351.549316 
	C266.502411,357.907257 261.775085,361.090668 253.926880,361.008545 
	C246.279007,360.928528 242.012192,357.860870 241.728149,351.450165 
	C241.390244,343.824341 241.648605,336.172150 241.648605,328.263245 
	C244.786240,328.263245 247.693741,328.263245 251.194153,328.263245 
	C251.194153,335.343964 251.171646,342.439941 251.203888,349.535736 
	C251.219498,352.971741 251.309860,356.501160 255.921585,356.957397 
	C260.194031,357.380096 263.053925,355.731537 263.607971,350.663452 
z"/>
<path fill="#FAFCFA" opacity="1.000000" stroke="none" 
	d="
M323.542053,338.049622 
	C323.542084,334.580414 323.542084,331.599091 323.542084,328.308350 
	C326.721558,328.308350 329.620758,328.308350 333.193878,328.308350 
	C333.193878,335.088013 333.176941,342.006348 333.200409,348.924530 
	C333.213837,352.879272 333.139709,356.915466 338.803528,356.997925 
	C343.608307,357.067841 345.584564,354.778961 345.636261,348.747040 
	C345.694580,341.943573 345.649689,335.139221 345.649689,328.335236 
	C346.110596,328.107605 346.571503,327.879944 347.032440,327.652283 
	C347.665466,328.605011 348.824799,329.545624 348.847107,330.512451 
	C349.004486,337.337219 349.127716,344.174927 348.869354,350.993622 
	C348.620605,357.558472 344.189178,360.952026 336.491577,361.008545 
	C328.282867,361.068787 324.074158,357.903687 323.651337,351.024017 
	C323.396332,346.875275 323.564148,342.700531 323.542053,338.049622 
z"/>
<path fill="#FAFCFA" opacity="1.000000" stroke="none" 
	d="
M244.652863,379.561279 
	C245.399506,378.285980 246.144043,377.458252 247.882828,375.525146 
	C247.882828,385.031006 248.167953,392.854309 247.792007,400.645721 
	C247.494980,406.801544 242.829315,409.992218 235.325363,410.008514 
	C227.581589,410.025330 223.096069,407.062714 222.782135,400.841003 
	C222.389343,393.056183 222.687698,385.236511 222.687698,377.213776 
	C225.851028,377.213776 228.767990,377.213776 232.194229,377.213776 
	C232.194229,384.433533 232.197388,391.542450 232.193008,398.651337 
	C232.190552,402.655640 232.820587,406.099426 238.037415,406.004333 
	C242.507278,405.922760 244.527664,403.801636 244.621796,398.505859 
	C244.731354,392.341980 244.649536,386.174683 244.652863,379.561279 
z"/>
<path fill="#F6F9F6" opacity="1.000000" stroke="none" 
	d="
M328.149780,391.461914 
	C325.781647,385.071930 326.835266,381.282715 331.416229,378.678955 
	C336.609253,375.727325 345.253296,376.514374 348.002502,380.414154 
	C348.875305,381.652222 349.271332,383.432281 349.265869,384.962128 
	C349.264191,385.440979 347.234253,385.912628 346.091492,386.405365 
	C344.371216,380.951355 341.107697,378.831940 336.454651,380.212341 
	C335.119873,380.608337 333.563416,382.000977 333.177124,383.263550 
	C332.899414,384.171204 334.132965,385.975494 335.165497,386.744202 
	C336.582123,387.798798 338.488068,388.169098 340.109497,388.981873 
	C342.613098,390.236786 345.586975,391.129730 347.372589,393.081024 
	C349.211151,395.090179 350.659302,398.123291 350.862335,400.815155 
	C351.217834,405.528900 347.121552,409.028076 341.430786,409.939728 
	C334.605713,411.033051 328.422241,408.586090 326.912506,404.120941 
	C325.793182,400.810516 325.816345,398.076385 330.467377,398.174316 
	C331.073547,405.464020 332.584351,407.440643 337.954041,406.854431 
	C339.751556,406.658173 341.387085,404.978516 343.096680,403.976929 
	C342.093964,402.272400 341.479431,400.032440 340.012207,398.968658 
	C336.327759,396.297333 332.257782,394.157776 328.149780,391.461914 
z"/>
<path fill="#F6F9F6" opacity="1.000000" stroke="none" 
	d="
M183.110107,406.281860 
	C186.544983,403.487701 185.634048,401.098846 182.723373,399.314758 
	C180.482941,397.941528 177.877060,397.180298 175.509720,395.995056 
	C170.200546,393.336914 167.980637,389.301788 168.980530,384.374939 
	C169.829956,380.189606 174.023026,377.206360 179.620804,377.005707 
	C184.055023,376.846741 188.536880,377.127258 190.878571,381.688965 
	C192.279160,384.417389 191.956573,386.720459 187.855759,385.905090 
	C186.373260,380.825806 182.509766,378.593903 177.859955,380.358490 
	C176.758606,380.776428 175.272476,381.935059 175.193695,382.858032 
	C175.090302,384.069031 175.895569,385.765564 176.873184,386.562408 
	C178.239273,387.675873 180.148697,388.104065 181.783585,388.910767 
	C184.300064,390.152374 187.359253,390.942993 189.121246,392.890381 
	C191.054886,395.027405 192.631180,398.196930 192.837189,401.027588 
	C193.175964,405.683105 188.851425,409.188385 183.183197,409.984009 
	C176.507721,410.920990 170.457901,408.577484 168.979172,404.310669 
	C167.900146,401.197266 167.455246,398.192749 172.051743,398.170685 
	C172.918503,400.709076 173.068069,404.131042 174.800980,405.413452 
	C176.669724,406.796448 180.020477,406.176971 183.110107,406.281860 
z"/>
<path fill="#F7FAF7" opacity="1.000000" stroke="none" 
	d="
M122.293724,359.964722 
	C121.629433,357.837341 121.122375,356.111908 120.506180,354.015045 
	C118.457001,354.015045 116.471970,354.200409 114.535736,353.972015 
	C111.555321,353.620453 110.034027,354.645660 109.289680,357.669739 
	C108.934105,359.114410 107.284775,360.240662 106.221436,361.511139 
	C105.750389,361.174255 105.279343,360.837372 104.808304,360.500458 
	C108.003365,349.785980 111.198433,339.071503 114.439415,328.203003 
	C117.230049,328.203003 119.851173,328.203003 123.051773,328.203003 
	C126.036995,338.759918 129.083633,349.533997 132.378693,361.186554 
	C128.739807,360.886017 125.595383,360.626312 122.293724,359.964722 
M113.646271,343.187897 
	C113.018227,345.669830 112.390182,348.151794 111.709351,350.842346 
	C114.546036,350.842346 116.829262,350.842346 119.611275,350.842346 
	C118.484558,346.366547 117.430138,342.177979 116.375710,337.989380 
	C116.000786,337.976135 115.625862,337.962891 115.250938,337.949677 
	C114.786568,339.436554 114.322205,340.923462 113.646271,343.187897 
z"/>
<path fill="#F5F9F5" opacity="1.000000" stroke="none" 
	d="
M211.352112,345.893188 
	C211.328415,333.296539 219.322571,326.905060 228.925858,328.187012 
	C231.792786,328.569702 234.914978,330.804260 236.885803,333.084381 
	C238.884369,335.396667 238.073715,338.042175 234.161896,338.510315 
	C233.871628,337.184387 233.978561,335.584656 233.232391,334.728210 
	C231.944107,333.249573 230.223236,331.474182 228.500244,331.252930 
	C227.020477,331.062897 224.423553,332.484039 223.806931,333.859161 
	C220.764389,340.644531 220.660049,347.824066 223.459702,354.646759 
	C224.134903,356.292236 227.680969,358.027588 229.438599,357.633484 
	C231.539139,357.162537 233.406921,354.640594 234.839355,352.625824 
	C235.566467,351.603119 235.116226,349.743317 235.200851,348.214874 
	C238.350739,347.329803 239.687775,348.877014 238.963242,351.646240 
	C238.369476,353.915710 237.325836,356.508240 235.631073,357.974274 
	C227.280182,365.198090 213.554947,360.085602 211.769852,349.283966 
	C211.607269,348.300171 211.513397,347.304993 211.352112,345.893188 
z"/>
<path fill="#FFFFFF" opacity="1.000000" stroke="none" 
	d="
M313.009338,409.999268 
	C309.199219,409.999268 305.884369,409.999268 302.247620,409.999268 
	C302.247620,399.072571 302.247620,388.341736 302.247620,377.304504 
	C309.173126,377.304504 316.216583,377.304504 324.527313,377.304504 
	C320.323181,381.849518 315.542328,378.770721 311.684570,380.493134 
	C311.684570,383.461609 311.684570,386.542084 311.684570,389.574707 
	C314.924377,390.959351 319.062286,388.511749 321.630249,391.254333 
	C321.513397,391.793213 321.396515,392.332123 321.279663,392.871002 
	C318.176025,392.871002 315.072357,392.871002 311.704895,392.871002 
	C311.704895,397.711517 311.704895,402.129883 311.704895,407.000763 
	C314.662750,407.000763 317.463074,406.838745 320.232819,407.059906 
	C321.968689,407.198486 323.658539,407.913269 325.369049,408.369537 
	C323.580200,408.912781 321.822784,409.700500 319.994324,409.935333 
	C317.863525,410.209045 315.670593,409.999237 313.009338,409.999268 
z"/>
<path fill="#FFFFFF" opacity="1.000000" stroke="none" 
	d="
M384.924164,356.873627 
	C384.924133,347.090332 384.924133,337.793488 384.924133,328.003632 
	C391.517639,328.003632 397.798798,327.945099 404.075836,328.078674 
	C404.848236,328.095154 405.598846,329.137421 406.359558,329.704315 
	C405.626526,330.134857 404.909607,330.900757 404.157623,330.936890 
	C401.170959,331.080353 398.173340,330.995941 394.809296,330.995941 
	C394.809296,334.231812 394.809296,337.283417 394.809296,340.839478 
	C397.782684,340.839478 400.855072,340.839478 403.958130,340.839478 
	C403.748657,343.218689 403.748657,343.218689 394.659973,344.468018 
	C394.659973,348.712555 394.659973,352.991425 394.659973,357.910706 
	C399.209320,357.910706 403.743896,357.910706 408.278503,357.910706 
	C408.440887,358.363373 408.603241,358.816040 408.765625,359.268707 
	C407.953522,359.844269 407.152039,360.900787 406.327637,360.919006 
	C399.998657,361.058594 393.662354,360.882721 387.334473,361.044800 
	C384.157227,361.126160 385.062622,359.012573 384.924164,356.873627 
z"/>
<path fill="#FFFFFF" opacity="1.000000" stroke="none" 
	d="
M213.031876,408.771240 
	C209.816162,409.589203 206.636826,409.926392 202.996918,410.312439 
	C202.996918,399.954407 202.996918,390.236237 202.996918,380.605774 
	C199.862305,380.016144 197.145996,379.505188 194.429672,378.994232 
	C194.559250,378.425171 194.688812,377.856140 194.818390,377.287109 
	C203.529205,377.287109 212.240021,377.287109 220.996567,377.287109 
	C220.338379,379.854126 220.338379,379.854126 213.068253,380.166718 
	C213.068253,389.508942 213.068253,398.899719 213.031876,408.771240 
z"/>
<path fill="#FFFFFF" opacity="1.000000" stroke="none" 
	d="
M302.928253,358.805084 
	C302.924805,349.385101 302.924805,340.446838 302.924805,331.602356 
	C299.849976,331.015198 297.137421,330.497223 294.424866,329.979248 
	C294.557007,329.412231 294.689178,328.845184 294.821350,328.278137 
	C303.536499,328.278137 312.251678,328.278137 321.547394,328.278137 
	C319.917542,332.988098 316.032928,329.876526 313.367920,331.580078 
	C313.367920,340.844482 313.367920,350.569305 313.367920,361.734039 
	C309.470215,360.820038 306.200958,360.053406 302.928253,358.805084 
z"/>
<path fill="#FFFFFF" opacity="1.000000" stroke="none" 
	d="
M275.150818,328.004028 
	C277.758911,328.001282 279.884735,328.001282 282.446472,328.001282 
	C282.446472,338.127167 282.446472,347.850616 282.446472,357.929016 
	C287.133057,357.929016 291.393402,357.929016 295.653748,357.929016 
	C295.888367,358.267487 296.123016,358.605927 296.357666,358.944397 
	C295.608337,359.628174 294.871796,360.888733 294.107697,360.905670 
	C287.177734,361.059296 280.242950,360.995728 272.931244,360.995728 
	C272.931244,350.309143 272.902008,340.051147 273.005524,329.794556 
	C273.011566,329.193085 274.089478,328.602448 275.150818,328.004028 
z"/>
<path fill="#F5F9F5" opacity="1.000000" stroke="none" 
	d="
M286.311523,409.595001 
	C285.980988,398.648895 285.980988,388.047668 285.980988,377.214935 
	C289.184906,377.214935 292.115387,377.214935 295.375488,377.214935 
	C295.375488,387.925293 295.375488,398.642029 295.375488,409.939880 
	C292.483582,409.939880 289.562805,409.939880 286.311523,409.595001 
z"/>
<path fill="#F5F9F5" opacity="1.000000" stroke="none" 
	d="
M206.699005,334.159973 
	C206.699005,343.251556 206.699005,351.863617 206.699005,360.744568 
	C203.393555,360.744568 200.474106,360.744568 197.225128,360.744568 
	C197.225128,350.128693 197.225128,339.405762 197.225128,328.330750 
	C200.070023,328.330750 203.113205,328.330750 206.699005,328.330750 
	C206.699005,330.117096 206.699005,331.898743 206.699005,334.159973 
z"/>
<path fill="#166B1A" opacity="1.000000" stroke="none" 
	d="
M179.485992,331.148865 
	C183.297821,332.850739 183.971283,336.041382 182.544296,338.715759 
	C181.528229,340.620056 178.577286,341.491943 175.569229,343.412323 
	C175.569229,338.251160 175.569229,334.828156 175.569229,331.041809 
	C176.850906,331.041809 177.967438,331.041809 179.485992,331.148865 
z"/>
<path fill="#166B1A" opacity="1.000000" stroke="none" 
	d="
M364.994141,330.982819 
	C369.705780,330.962250 371.319153,333.371674 370.983002,337.335968 
	C370.672577,340.996552 368.766846,342.095154 362.926819,341.615082 
	C363.479034,338.050873 364.025330,334.524841 364.994141,330.982819 
z"/>
<path fill="#126816" opacity="1.000000" stroke="none" 
	d="
M272.079254,388.850891 
	C272.001282,393.258850 272.232086,397.289948 271.724243,401.225708 
	C271.098572,406.074158 268.948944,407.280212 263.550659,406.538605 
	C263.550659,397.936340 263.550659,389.309570 263.550659,380.699554 
	C269.615448,379.284454 271.152130,380.696289 272.079254,388.850891 
z"/>
<path fill="#126816" opacity="1.000000" stroke="none" 
	d="
M113.752052,342.799133 
	C114.322205,340.923462 114.786568,339.436554 115.250938,337.949677 
	C115.625862,337.962891 116.000786,337.976135 116.375710,337.989380 
	C117.430138,342.177979 118.484558,346.366547 119.611275,350.842346 
	C116.829262,350.842346 114.546036,350.842346 111.709351,350.842346 
	C112.390182,348.151794 113.018227,345.669830 113.752052,342.799133 
z"/>
</svg>