<svg version="1.1" id="Layer_1" xmlns="http://www.w3.org/2000/svg" xmlns:xlink="http://www.w3.org/1999/xlink" x="0px" y="0px"
	 width="100%" viewBox="0 0 384 576" enable-background="new 0 0 384 576" xml:space="preserve">
<path fill="#8282FE" opacity="1.000000" stroke="none" 
	d="
M385.000000,142.000000 
	C385.000000,286.950287 385.000000,431.900543 385.000000,576.925415 
	C257.093658,576.925415 129.187241,576.925415 1.000000,576.925415 
	C1.000000,432.310120 1.000000,287.620087 1.468657,142.464722 
	C26.898439,142.022186 51.859562,142.044952 76.792038,142.414276 
	C70.661369,153.683319 63.967636,164.325104 58.616856,175.604019 
	C52.782917,187.901367 47.523327,200.567902 43.258144,213.484528 
	C39.301514,225.466751 36.525444,237.900345 34.084488,250.303436 
	C31.849682,261.659058 30.022581,273.194397 29.313259,284.730347 
	C27.763788,309.929779 26.968792,335.100494 30.596031,360.335693 
	C33.064983,377.512543 34.824432,394.730865 40.079361,411.363129 
	C43.741821,422.955139 46.598816,434.858307 51.082733,446.117859 
	C55.449905,457.084290 60.991543,467.656372 66.816696,477.949280 
	C73.347908,489.489868 79.796127,501.317078 88.091911,511.551208 
	C96.218079,521.576111 105.989708,530.566040 116.197365,538.524597 
	C127.434196,547.285583 139.722031,554.711182 153.133408,560.167725 
	C166.625320,565.657104 180.899948,566.453064 194.990295,567.857056 
	C201.950027,568.550598 209.208939,566.389160 216.315765,565.399536 
	C220.084015,564.874817 223.968460,564.538391 227.529388,563.322876 
	C232.824463,561.515381 237.895767,559.041687 243.030716,556.779724 
	C246.315155,555.332947 249.663055,553.968994 252.775253,552.202759 
	C268.072449,543.521423 281.861145,532.712585 293.668304,519.807007 
	C302.119171,510.569885 309.653442,500.324310 316.436768,489.782349 
	C322.453339,480.432007 327.430817,470.295135 331.856110,460.068085 
	C337.674805,446.620850 343.053986,432.924316 347.582977,418.997040 
	C351.176483,407.946411 353.869995,396.497101 355.764709,385.026855 
	C358.139801,370.648407 360.123627,356.104370 360.763428,341.565186 
	C361.608154,322.369568 361.819031,303.176208 359.391174,283.901520 
	C357.115143,265.832367 354.774963,247.951096 350.325531,230.210251 
	C346.162659,213.611969 340.438995,197.665329 334.162598,181.874969 
	C331.377014,174.866898 327.310455,168.358261 323.701569,161.689926 
	C320.144073,155.116714 316.430115,148.628204 313.266418,142.078430 
	C337.498688,142.036209 361.249359,142.018097 385.000000,142.000000 
z"/>
<path fill="#B6B6DB" opacity="1.000000" stroke="none" 
	d="
M385.000000,141.531342 
	C361.249359,142.018097 337.498688,142.036209 313.058289,142.068085 
	C312.368561,142.081848 311.966888,141.971069 311.906311,141.624603 
	C308.096985,136.387329 304.542633,131.330017 300.540466,126.656227 
	C297.080658,122.615868 293.126678,118.996704 289.364380,115.217972 
	C285.293457,111.129272 281.191620,107.071404 277.024078,102.537949 
	C276.944916,96.856674 276.944916,91.637550 276.944916,86.418419 
	C277.351746,86.462204 277.758545,86.505989 278.165375,86.549774 
	C281.532806,94.237328 284.900269,101.924881 288.267731,109.612434 
	C288.754181,109.446243 289.240601,109.280045 289.727051,109.113853 
	C289.727051,98.718391 289.727051,88.322929 289.727051,77.927467 
	C289.213989,77.907516 288.700958,77.887566 288.187897,77.867615 
	C288.187897,84.846382 288.187897,91.825150 288.187897,98.803917 
	C287.705383,98.859833 287.222900,98.915741 286.740387,98.971657 
	C285.117432,95.309929 283.717651,91.526657 281.808441,88.020813 
	C279.914673,84.543304 280.431122,79.309700 274.556396,77.348755 
	C274.556396,84.989998 274.556396,91.777016 273.952576,98.628189 
	C272.539703,98.716362 271.730682,98.740372 270.911194,98.325287 
	C270.650909,93.621559 270.802490,89.284935 270.053650,85.109810 
	C269.027191,79.386803 263.289551,75.874229 258.339111,77.968071 
	C256.151886,78.893181 254.625076,81.379715 252.412399,83.134048 
	C250.738281,83.050217 249.450211,82.989738 248.090775,82.507774 
	C247.459625,80.686096 246.899841,79.285904 246.340057,77.885712 
	C245.839035,79.228081 245.338013,80.570457 244.617416,81.807785 
	C243.962997,81.483994 243.528168,81.265244 243.079712,80.635849 
	C242.066116,79.399132 241.134140,77.982033 240.053421,77.857719 
	C236.803665,77.483902 233.495956,77.613907 230.135345,77.127808 
	C229.375519,75.872955 228.794922,74.432831 227.991013,74.294991 
	C218.943588,72.743607 209.858322,71.414757 200.790176,69.981941 
	C187.677139,67.910027 175.333618,72.897415 162.592743,74.237091 
	C161.550034,74.346741 160.712326,76.406258 159.412628,77.636276 
	C156.885666,78.036430 154.725418,78.360054 152.182037,78.646828 
	C150.253067,79.393852 148.707245,80.177719 147.089478,80.557930 
	C146.721710,79.378242 146.425888,78.602219 146.130066,77.826202 
	C145.832581,77.920502 145.535110,78.014793 145.237625,78.109093 
	C145.104385,79.392303 144.971146,80.675507 144.496948,81.972336 
	C142.861816,82.321709 141.567642,82.657463 140.109192,82.652557 
	C136.044662,75.618729 129.785812,78.170044 123.579727,77.850578 
	C123.579727,83.723557 123.579727,89.173630 123.154648,94.695114 
	C121.872864,94.853973 121.016167,94.941406 120.110275,94.580612 
	C119.027802,89.797173 117.994507,85.461960 116.768173,80.827591 
	C114.224106,79.524567 111.930359,77.876045 109.509224,77.660858 
	C105.395737,77.295242 102.888557,81.434669 102.219925,83.928619 
	C100.068901,91.951721 99.367691,100.322235 105.981155,107.529877 
	C101.916908,112.199226 97.842812,116.475792 93.859627,120.835426 
	C92.207748,122.643425 90.686348,124.581177 89.216888,126.543251 
	C85.415428,131.619095 81.675880,136.741333 77.641342,141.912781 
	C77.187607,142.009583 77.004150,142.038666 76.820686,142.067734 
	C51.859562,142.044952 26.898439,142.022186 1.468657,141.999710 
	C1.000000,95.030891 1.000000,48.061775 1.000000,1.046333 
	C128.884979,1.046333 256.769958,1.046333 385.000000,1.046333 
	C385.000000,47.686993 385.000000,94.374840 385.000000,141.531342 
M217.328690,26.080051 
	C214.680878,26.080051 212.033066,26.080051 209.116791,26.080051 
	C209.116791,36.532085 209.116791,46.690067 209.116791,56.410446 
	C214.487610,56.410446 219.469086,56.410446 225.318542,56.410446 
	C221.435745,50.626324 215.925430,54.766640 212.239944,52.445831 
	C212.239944,49.337494 212.239944,46.266441 212.239944,43.399620 
	C215.828629,41.834965 220.145401,44.583344 222.772186,39.980774 
	C219.241745,39.980774 215.711304,39.980774 212.118011,39.980774 
	C212.118011,36.411201 212.118011,33.480320 212.118011,30.083576 
	C215.872711,30.083576 219.441498,30.083576 222.977753,30.083576 
	C224.054733,24.842243 220.496506,26.321299 217.328690,26.080051 
M194.923050,31.701881 
	C196.233459,31.151190 197.502167,30.307228 198.863373,30.113588 
	C201.354980,29.759142 203.901276,29.788902 206.424759,29.658447 
	C202.210159,23.925131 196.945175,27.078932 191.969147,26.047369 
	C191.969147,36.704193 191.969147,46.658978 191.969147,56.804012 
	C192.683670,56.836781 193.866943,56.935913 193.873444,56.884968 
	C194.459137,52.292542 194.954498,47.688599 195.429352,43.329796 
	C198.203476,41.656891 202.306580,44.971340 204.916809,39.994644 
	C201.121002,39.994644 198.218506,39.994644 194.905273,39.994644 
	C194.905273,37.217331 194.905273,34.928734 194.923050,31.701881 
M171.903625,35.576065 
	C171.807495,32.397358 171.711365,29.218647 171.615219,26.039938 
	C170.895508,26.080238 170.175797,26.120537 169.456085,26.160837 
	C169.456085,36.352669 169.456085,46.544498 169.456085,56.680840 
	C173.302399,56.680840 177.357361,56.680840 181.983032,56.680840 
	C180.235352,50.499722 174.827911,54.773434 171.903610,52.179131 
	C171.903610,47.146095 171.903610,41.848797 171.903625,35.576065 
M184.993134,53.236931 
	C185.147095,54.496120 185.301056,55.755310 185.455017,57.014500 
	C185.798859,56.961571 186.142700,56.908646 186.486542,56.855717 
	C186.486542,46.687164 186.486542,36.518612 186.486542,26.350058 
	C185.988708,26.341642 185.490891,26.333227 184.993057,26.324810 
	C184.993057,34.979992 184.993057,43.635170 184.993134,53.236931 
z"/>
<path fill="#F4836B" opacity="1.000000" stroke="none" 
	d="
M76.792038,142.414276 
	C77.004150,142.038666 77.187607,142.009583 78.115250,141.962616 
	C93.987015,141.964203 109.114655,141.964737 124.242172,142.007721 
	C146.016678,142.069595 167.791092,142.162369 189.381897,142.602066 
	C186.912140,143.712479 184.493561,144.195984 182.360779,145.255020 
	C164.304123,154.221130 154.911667,170.002060 151.185165,188.744186 
	C146.688751,211.358475 147.612915,233.917480 159.349838,254.737518 
	C161.292023,258.182770 164.498871,260.915070 167.413284,264.148285 
	C169.346512,266.519073 170.767929,268.934021 172.672089,270.875488 
	C177.492233,275.790070 181.976181,281.432953 190.002716,281.475159 
	C193.388809,285.312714 198.036240,284.951965 200.455322,281.059875 
	C203.168472,280.298492 206.067184,280.196472 207.686249,278.705200 
	C213.053497,273.761475 217.959793,268.317291 223.374146,262.958252 
	C224.510193,262.303223 225.556183,261.925720 226.083191,261.180969 
	C232.636398,251.920044 237.179016,241.569580 238.852631,230.507858 
	C242.473938,206.573029 241.197113,183.132889 226.662064,162.411484 
	C223.372803,157.722260 219.076096,153.493454 214.508072,150.019180 
	C210.245514,146.777206 205.005569,144.820312 200.710510,142.225006 
	C238.139069,142.091858 275.052979,142.031464 311.966888,141.971069 
	C311.966888,141.971069 312.368561,142.081848 312.576660,142.092194 
	C316.430115,148.628204 320.144073,155.116714 323.701569,161.689926 
	C327.310455,168.358261 331.377014,174.866898 334.162598,181.874969 
	C340.438995,197.665329 346.162659,213.611969 350.325531,230.210251 
	C354.774963,247.951096 357.115143,265.832367 359.391174,283.901520 
	C361.819031,303.176208 361.608154,322.369568 360.763428,341.565186 
	C360.123627,356.104370 358.139801,370.648407 355.764709,385.026855 
	C353.869995,396.497101 351.176483,407.946411 347.582977,418.997040 
	C343.053986,432.924316 337.674805,446.620850 331.856110,460.068085 
	C327.430817,470.295135 322.453339,480.432007 316.436768,489.782349 
	C309.653442,500.324310 302.119171,510.569885 293.668304,519.807007 
	C281.861145,532.712585 268.072449,543.521423 252.775253,552.202759 
	C249.663055,553.968994 246.315155,555.332947 243.030716,556.779724 
	C237.895767,559.041687 232.824463,561.515381 227.529388,563.322876 
	C223.968460,564.538391 220.084015,564.874817 216.315765,565.399536 
	C209.208939,566.389160 201.950027,568.550598 194.990295,567.857056 
	C180.899948,566.453064 166.625320,565.657104 153.133408,560.167725 
	C139.722031,554.711182 127.434196,547.285583 116.197365,538.524597 
	C105.989708,530.566040 96.218079,521.576111 88.091911,511.551208 
	C79.796127,501.317078 73.347908,489.489868 66.816696,477.949280 
	C60.991543,467.656372 55.449905,457.084290 51.082733,446.117859 
	C46.598816,434.858307 43.741821,422.955139 40.079361,411.363129 
	C34.824432,394.730865 33.064983,377.512543 30.596031,360.335693 
	C26.968792,335.100494 27.763788,309.929779 29.313259,284.730347 
	C30.022581,273.194397 31.849682,261.659058 34.084488,250.303436 
	C36.525444,237.900345 39.301514,225.466751 43.258144,213.484528 
	C47.523327,200.567902 52.782917,187.901367 58.616856,175.604019 
	C63.967636,164.325104 70.661369,153.683319 76.792038,142.414276 
M302.837189,330.842621 
	C302.870331,310.176819 302.907440,289.510986 302.934631,268.845184 
	C302.945770,260.380432 302.936035,260.380585 294.320862,259.667999 
	C293.657166,259.613068 292.940338,259.697113 292.338440,259.473633 
	C284.161621,256.437592 276.384949,260.511902 268.401886,260.883118 
	C265.204315,261.031799 262.054535,262.348511 258.896881,263.185852 
	C251.809967,265.065186 244.853973,266.965240 238.915939,271.849121 
	C235.782867,274.425995 231.172104,275.135010 227.783157,277.486664 
	C220.391144,282.616028 213.171616,288.036438 206.240784,293.771942 
	C202.128784,297.174744 198.700577,301.403900 194.280991,305.027832 
	C193.826981,304.823639 193.156693,304.746735 192.950623,304.396606 
	C187.886978,295.792877 179.482544,290.715088 171.922516,284.854340 
	C167.219971,281.208771 161.711411,278.606049 156.580429,275.509094 
	C151.411636,272.389282 146.631989,267.969574 141.035065,266.337738 
	C124.538544,261.527985 107.996117,255.914017 90.244110,259.743378 
	C87.435440,260.349274 86.688484,261.296753 86.699333,263.855804 
	C86.795425,286.505981 86.828979,309.156433 86.016685,331.866882 
	C82.281982,332.166351 76.902687,330.613892 77.350128,336.898132 
	C77.732895,342.274017 77.242409,347.647308 77.593590,352.858093 
	C78.193108,361.753845 77.712143,370.514832 77.203400,379.320740 
	C76.922997,384.174194 78.396027,386.180145 82.994087,387.122375 
	C84.358353,387.401978 85.492981,388.802124 86.712570,390.664764 
	C86.712570,408.926575 86.712570,427.188416 86.712570,445.783691 
	C89.166351,445.783691 90.970795,445.923248 92.746033,445.754852 
	C96.517761,445.397034 100.376785,444.092560 104.018745,444.567200 
	C117.509308,446.325409 131.039536,447.235809 143.745453,453.661072 
	C153.934586,458.813599 164.514938,462.946655 173.035599,470.883209 
	C180.246124,477.599487 187.639572,484.119415 195.551804,490.430878 
	C199.655899,486.296051 203.545959,481.916931 207.916992,478.086761 
	C213.696396,473.022583 219.520279,467.875336 225.942184,463.716797 
	C232.068253,459.749847 238.859177,456.710724 245.593262,453.810364 
	C251.893951,451.096619 258.341766,448.082153 265.014282,447.021912 
	C275.502289,445.355377 286.161163,443.293060 296.915955,445.765442 
	C298.612366,446.155426 300.475555,445.820007 302.877777,445.820007 
	C302.877777,426.014038 302.877777,406.588837 303.771912,387.082733 
	C311.915009,386.891235 312.061981,386.705078 312.038300,379.727478 
	C311.991577,365.964813 311.940704,352.201111 312.065247,338.439453 
	C312.105652,333.975189 310.803467,331.345978 305.809387,331.910187 
	C304.835602,332.020172 303.825714,331.810699 302.837189,330.842621 
z"/>
<path fill="#D5B3AD" opacity="1.000000" stroke="none" 
	d="
M311.906311,141.624603 
	C275.052979,142.031464 238.139069,142.091858 200.327972,142.243591 
	C196.142380,142.303940 192.853958,142.272934 189.565552,142.241943 
	C167.791092,142.162369 146.016678,142.069595 124.242172,142.007721 
	C109.114655,141.964737 93.987015,141.964203 78.385513,141.894867 
	C81.675880,136.741333 85.415428,131.619095 89.216888,126.543251 
	C90.686348,124.581177 92.207748,122.643425 93.859627,120.835426 
	C97.842812,116.475792 101.916908,112.199226 106.370110,107.513123 
	C109.189598,107.073082 111.593315,107.009079 114.368263,106.980980 
	C116.116074,105.334557 117.492661,103.652222 119.018188,101.603790 
	C119.497910,99.168083 119.828682,97.098465 120.159454,95.028847 
	C121.016167,94.941406 121.872864,94.853973 123.245377,95.123207 
	C123.761177,99.631119 123.761177,103.782356 123.761177,107.933594 
	C124.572807,107.977592 125.384438,108.021584 126.196068,108.065582 
	C126.545731,103.738701 126.895393,99.411819 127.271423,94.758614 
	C137.135300,93.695961 134.029327,104.999931 139.872269,107.788948 
	C139.796021,105.624939 138.845886,103.933372 138.351685,102.117691 
	C137.432205,98.739487 134.079102,95.054512 137.514999,91.880318 
	C140.453735,89.165413 139.991760,86.134621 140.273483,82.993225 
	C141.567642,82.657463 142.861816,82.321709 144.571747,82.439987 
	C144.987518,91.105652 144.987518,99.317276 144.987518,107.528893 
	C145.569519,107.551178 146.151520,107.573463 146.733505,107.595749 
	C146.876144,98.717705 147.018784,89.839653 147.161423,80.961594 
	C148.707245,80.177719 150.253067,79.393852 152.252167,79.063072 
	C152.801636,88.679230 152.897827,97.842293 152.965408,107.433563 
	C153.044968,108.338402 153.134506,109.226326 153.263992,109.232185 
	C157.780884,109.436722 162.301590,109.583061 166.821548,109.578400 
	C166.965820,109.578255 167.108353,107.906967 167.232147,106.664627 
	C165.167114,105.846886 163.086319,104.873245 161.083237,105.013100 
	C156.383881,105.341171 154.150650,103.764259 154.878387,98.844002 
	C155.089096,97.419479 155.063751,95.960060 155.164001,94.213982 
	C158.297668,94.213982 161.123276,94.368156 163.916138,94.133118 
	C164.939423,94.047012 165.885056,93.038452 166.866104,92.450684 
	C165.942474,91.780495 165.062271,90.618553 164.087067,90.532440 
	C161.176147,90.275375 158.227982,90.440117 155.155655,90.440117 
	C155.155655,87.223190 155.155655,84.644829 155.155655,82.107124 
	C166.828568,80.395943 166.828568,80.395943 166.671402,77.926315 
	C164.386383,77.804787 162.082870,77.682266 159.779373,77.559753 
	C160.712326,76.406258 161.550034,74.346741 162.592743,74.237091 
	C175.333618,72.897415 187.677139,67.910027 200.790176,69.981941 
	C209.858322,71.414757 218.943588,72.743607 227.991013,74.294991 
	C228.794922,74.432831 229.375519,75.872955 229.766510,77.212540 
	C228.456589,78.420876 227.439987,79.124916 226.423370,79.828964 
	C227.243729,80.424866 228.104721,81.579926 228.877655,81.523735 
	C233.121201,81.215286 233.873535,83.508499 233.706177,87.057899 
	C233.518860,91.030312 233.596603,95.019920 233.685837,98.999207 
	C233.758499,102.239265 234.018158,105.475128 234.194901,108.712852 
	C234.686981,108.698883 235.179077,108.684921 235.671158,108.670952 
	C235.671158,99.794090 235.671158,90.917229 235.671158,82.125687 
	C238.599701,81.699875 240.846512,81.373184 243.093323,81.046494 
	C243.528168,81.265244 243.962997,81.483994 244.692474,82.280548 
	C244.987106,91.180321 244.987106,99.502281 244.987106,108.599243 
	C246.367630,107.713081 247.315994,107.401787 247.330780,107.051155 
	C247.669418,99.013123 247.906311,90.970787 248.162140,82.929260 
	C249.450211,82.989738 250.738281,83.050217 252.449829,83.537476 
	C251.942612,90.388481 250.762512,96.826874 253.987579,103.405457 
	C254.504623,104.711098 254.754700,105.978935 255.513382,106.486473 
	C259.414856,109.096489 263.300262,108.121048 267.416748,105.905945 
	C268.803253,103.434204 269.862427,101.099289 270.921631,98.764381 
	C271.730682,98.740372 272.539703,98.716362 274.037415,98.945206 
	C274.846893,101.784050 274.967743,104.370049 275.088623,106.956047 
	C275.524506,106.956085 275.960388,106.956131 276.396240,106.956169 
	C276.631897,105.637474 276.867554,104.318787 277.103241,103.000092 
	C281.191620,107.071404 285.293457,111.129272 289.364380,115.217972 
	C293.126678,118.996704 297.080658,122.615868 300.540466,126.656227 
	C304.542633,131.330017 308.096985,136.387329 311.906311,141.624603 
M211.886597,87.762810 
	C210.116928,94.063568 208.347260,100.364319 206.577591,106.665077 
	C207.164536,107.110680 207.751480,107.556282 208.338425,108.001892 
	C210.281982,101.630867 212.322266,95.424393 220.488068,99.582123 
	C221.060760,102.302475 221.658646,105.142448 222.256516,107.982422 
	C222.744385,108.041122 223.232254,108.099823 223.720123,108.158524 
	C224.000778,106.753891 224.755493,105.245911 224.475891,103.963425 
	C223.520782,99.582710 222.201935,95.281303 221.070297,90.182549 
	C220.046539,86.610893 219.125275,83.004318 217.928665,79.491539 
	C217.620529,78.586990 216.477127,77.435844 215.660477,77.388901 
	C214.884338,77.344299 213.535385,78.462143 213.309509,79.302933 
	C212.639008,81.798546 212.397949,84.409546 211.886597,87.762810 
M185.005783,97.817337 
	C184.175140,97.403969 182.884277,97.199738 182.586411,96.544258 
	C180.129715,91.138046 177.927322,85.616241 175.469223,80.210701 
	C174.981796,79.138817 173.727158,78.415810 172.244507,76.961060 
	C172.244507,88.286987 172.244507,98.426781 172.244507,108.566574 
	C172.753754,108.580292 173.263000,108.594009 173.772247,108.607735 
	C173.772247,101.206299 173.772247,93.804871 173.772247,86.403435 
	C174.227173,86.362961 174.682114,86.322487 175.137039,86.282005 
	C178.559372,93.989487 181.981705,101.696960 185.404037,109.404434 
	C185.850815,109.230782 186.297607,109.057129 186.744385,108.883469 
	C186.744385,98.622795 186.744385,88.362114 186.744385,78.101440 
	C186.188049,78.081528 185.631699,78.061607 185.075363,78.041695 
	C185.075363,84.338921 185.075363,90.636139 185.005783,97.817337 
M201.360062,81.689468 
	C203.469360,81.018143 207.750702,83.256432 206.788528,77.757385 
	C201.910095,77.757385 197.427322,77.672943 192.953140,77.831474 
	C192.099258,77.861725 191.279358,78.850952 190.443771,79.397736 
	C191.120346,80.133781 191.869781,81.560677 192.462128,81.498184 
	C197.919479,80.922531 197.749130,84.421013 197.693726,88.152191 
	C197.591187,95.057228 197.664398,101.964890 197.664398,108.871452 
	C198.206467,108.886864 198.748520,108.902275 199.290588,108.917686 
	C199.498947,106.856247 199.824005,104.798782 199.894379,102.732643 
	C200.130585,95.798164 200.275925,88.860588 201.360062,81.689468 
z"/>
<path fill="#16161A" opacity="1.000000" stroke="none" 
	d="
M277.024078,102.537949 
	C276.867554,104.318787 276.631897,105.637474 276.396240,106.956169 
	C275.960388,106.956131 275.524506,106.956085 275.088623,106.956047 
	C274.967743,104.370049 274.846893,101.784050 274.641235,98.881042 
	C274.556396,91.777016 274.556396,84.989998 274.556396,77.348755 
	C280.431122,79.309700 279.914673,84.543304 281.808441,88.020813 
	C283.717651,91.526657 285.117432,95.309929 286.740387,98.971657 
	C287.222900,98.915741 287.705383,98.859833 288.187897,98.803917 
	C288.187897,91.825150 288.187897,84.846382 288.187897,77.867615 
	C288.700958,77.887566 289.213989,77.907516 289.727051,77.927467 
	C289.727051,88.322929 289.727051,98.718391 289.727051,109.113853 
	C289.240601,109.280045 288.754181,109.446243 288.267731,109.612434 
	C284.900269,101.924881 281.532806,94.237328 278.165375,86.549774 
	C277.758545,86.505989 277.351746,86.462204 276.944916,86.418419 
	C276.944916,91.637550 276.944916,96.856674 277.024078,102.537949 
z"/>
<path fill="#171312" opacity="1.000000" stroke="none" 
	d="
M159.412628,77.636276 
	C162.082870,77.682266 164.386383,77.804787 166.671402,77.926315 
	C166.828568,80.395943 166.828568,80.395943 155.155655,82.107124 
	C155.155655,84.644829 155.155655,87.223190 155.155655,90.440117 
	C158.227982,90.440117 161.176147,90.275375 164.087067,90.532440 
	C165.062271,90.618553 165.942474,91.780495 166.866104,92.450684 
	C165.885056,93.038452 164.939423,94.047012 163.916138,94.133118 
	C161.123276,94.368156 158.297668,94.213982 155.164001,94.213982 
	C155.063751,95.960060 155.089096,97.419479 154.878387,98.844002 
	C154.150650,103.764259 156.383881,105.341171 161.083237,105.013100 
	C163.086319,104.873245 165.167114,105.846886 166.751907,106.697968 
	C161.858810,107.056061 157.426407,107.030708 152.994019,107.005356 
	C152.897827,97.842293 152.801636,88.679230 152.635315,79.099922 
	C154.725418,78.360054 156.885666,78.036430 159.412628,77.636276 
z"/>
<path fill="#0E0D0D" opacity="1.000000" stroke="none" 
	d="
M140.109192,82.652557 
	C139.991760,86.134621 140.453735,89.165413 137.514999,91.880318 
	C134.079102,95.054512 137.432205,98.739487 138.351685,102.117691 
	C138.845886,103.933372 139.796021,105.624939 139.872269,107.788948 
	C134.029327,104.999931 137.135300,93.695961 127.271423,94.758614 
	C126.895393,99.411819 126.545731,103.738701 126.196068,108.065582 
	C125.384438,108.021584 124.572807,107.977592 123.761177,107.933594 
	C123.761177,103.782356 123.761177,99.631119 123.670456,95.051788 
	C123.579727,89.173630 123.579727,83.723557 123.579727,77.850578 
	C129.785812,78.170044 136.044662,75.618729 140.109192,82.652557 
M127.170242,82.075371 
	C127.170242,84.941414 127.170242,87.807457 127.170242,90.821220 
	C129.025803,90.821220 130.355667,90.699760 131.656158,90.843735 
	C135.750366,91.296974 137.166351,89.441391 137.190643,85.451324 
	C137.215820,81.314865 134.588882,81.517059 131.883667,81.496056 
	C130.562012,81.485802 129.239609,81.572342 127.170242,82.075371 
z"/>
<path fill="#17171C" opacity="1.000000" stroke="none" 
	d="
M217.768112,26.080053 
	C220.496506,26.321299 224.054733,24.842243 222.977753,30.083576 
	C219.441498,30.083576 215.872711,30.083576 212.118011,30.083576 
	C212.118011,33.480320 212.118011,36.411201 212.118011,39.980774 
	C215.711304,39.980774 219.241745,39.980774 222.772186,39.980774 
	C220.145401,44.583344 215.828629,41.834965 212.239944,43.399620 
	C212.239944,46.266441 212.239944,49.337494 212.239944,52.445831 
	C215.925430,54.766640 221.435745,50.626324 225.318542,56.410446 
	C219.469086,56.410446 214.487610,56.410446 209.116791,56.410446 
	C209.116791,46.690067 209.116791,36.532085 209.116791,26.080051 
	C212.033066,26.080051 214.680878,26.080051 217.768112,26.080053 
z"/>
<path fill="#121216" opacity="1.000000" stroke="none" 
	d="
M194.914154,32.171013 
	C194.905273,34.928734 194.905273,37.217331 194.905273,39.994644 
	C198.218506,39.994644 201.121002,39.994644 204.916809,39.994644 
	C202.306580,44.971340 198.203476,41.656891 195.429352,43.329796 
	C194.954498,47.688599 194.459137,52.292542 193.873444,56.884968 
	C193.866943,56.935913 192.683670,56.836781 191.969147,56.804012 
	C191.969147,46.658978 191.969147,36.704193 191.969147,26.047369 
	C196.945175,27.078932 202.210159,23.925131 206.424759,29.658447 
	C203.901276,29.788902 201.354980,29.759142 198.863373,30.113588 
	C197.502167,30.307228 196.233459,31.151190 194.914154,32.171013 
z"/>
<path fill="#1D1817" opacity="1.000000" stroke="none" 
	d="
M243.079712,80.635849 
	C240.846512,81.373184 238.599701,81.699875 235.671158,82.125687 
	C235.671158,90.917229 235.671158,99.794090 235.671158,108.670952 
	C235.179077,108.684921 234.686981,108.698883 234.194901,108.712852 
	C234.018158,105.475128 233.758499,102.239265 233.685837,98.999207 
	C233.596603,95.019920 233.518860,91.030312 233.706177,87.057899 
	C233.873535,83.508499 233.121201,81.215286 228.877655,81.523735 
	C228.104721,81.579926 227.243729,80.424866 226.423370,79.828964 
	C227.439987,79.124916 228.456589,78.420876 229.842026,77.632103 
	C233.495956,77.613907 236.803665,77.483902 240.053421,77.857719 
	C241.134140,77.982033 242.066116,79.399132 243.079712,80.635849 
z"/>
<path fill="#111012" opacity="1.000000" stroke="none" 
	d="
M253.955200,103.016953 
	C250.762512,96.826874 251.942612,90.388481 252.835876,83.560829 
	C254.625076,81.379715 256.151886,78.893181 258.339111,77.968071 
	C263.289551,75.874229 269.027191,79.386803 270.053650,85.109810 
	C270.802490,89.284935 270.650909,93.621559 270.911194,98.325287 
	C269.862427,101.099289 268.803253,103.434204 267.185608,105.660065 
	C266.414856,104.688904 266.202576,103.826805 266.191040,102.647446 
	C266.847351,99.880829 267.302917,97.431488 267.850952,94.548294 
	C267.718964,91.527901 267.362579,88.944588 267.299072,86.354103 
	C267.185150,81.708153 263.853668,81.196899 260.545135,81.363388 
	C257.373718,81.522972 254.458298,82.687592 254.539154,87.200470 
	C254.535797,92.344963 254.775558,97.150505 254.869080,102.161713 
	C254.466980,102.583900 254.211090,102.800423 253.955200,103.016953 
z"/>
<path fill="#131317" opacity="1.000000" stroke="none" 
	d="
M171.903625,36.063782 
	C171.903610,41.848797 171.903610,47.146095 171.903610,52.179131 
	C174.827911,54.773434 180.235352,50.499722 181.983032,56.680840 
	C177.357361,56.680840 173.302399,56.680840 169.456085,56.680840 
	C169.456085,46.544498 169.456085,36.352669 169.456085,26.160837 
	C170.175797,26.120537 170.895508,26.080238 171.615219,26.039938 
	C171.711365,29.218647 171.807495,32.397358 171.903625,36.063782 
z"/>
<path fill="#101013" opacity="1.000000" stroke="none" 
	d="
M113.997040,106.945076 
	C111.593315,107.009079 109.189598,107.073082 106.396919,107.153839 
	C99.367691,100.322235 100.068901,91.951721 102.219925,83.928619 
	C102.888557,81.434669 105.395737,77.295242 109.509224,77.660858 
	C111.930359,77.876045 114.224106,79.524567 116.768143,81.168213 
	C116.951813,82.262024 116.942474,82.716064 116.567719,83.089188 
	C114.845131,82.442146 113.340843,81.196136 112.161354,81.451324 
	C109.702232,81.983376 105.566711,83.044785 105.379379,84.354805 
	C104.602142,89.789688 104.414108,95.491180 105.222565,100.913986 
	C105.894547,105.421333 110.286232,106.659790 113.093018,104.182205 
	C113.482376,105.301292 113.739708,106.123184 113.997040,106.945076 
z"/>
<path fill="#000000" opacity="1.000000" stroke="none" 
	d="
M248.090775,82.507774 
	C247.906311,90.970787 247.669418,99.013123 247.330780,107.051155 
	C247.315994,107.401787 246.367630,107.713081 244.987106,108.599243 
	C244.987106,99.502281 244.987106,91.180321 244.912048,82.385590 
	C245.338013,80.570457 245.839035,79.228081 246.340057,77.885712 
	C246.899841,79.285904 247.459625,80.686096 248.090775,82.507774 
z"/>
<path fill="#030303" opacity="1.000000" stroke="none" 
	d="
M184.993103,52.763641 
	C184.993057,43.635170 184.993057,34.979992 184.993057,26.324810 
	C185.490891,26.333227 185.988708,26.341642 186.486542,26.350058 
	C186.486542,36.518612 186.486542,46.687164 186.486542,56.855717 
	C186.142700,56.908646 185.798859,56.961571 185.455017,57.014500 
	C185.301056,55.755310 185.147095,54.496120 184.993103,52.763641 
z"/>
<path fill="#000000" opacity="1.000000" stroke="none" 
	d="
M147.089478,80.557938 
	C147.018784,89.839653 146.876144,98.717705 146.733505,107.595749 
	C146.151520,107.573463 145.569519,107.551178 144.987518,107.528893 
	C144.987518,99.317276 144.987518,91.105652 144.912720,82.426376 
	C144.971146,80.675507 145.104385,79.392303 145.237625,78.109093 
	C145.535110,78.014793 145.832581,77.920502 146.130066,77.826202 
	C146.425888,78.602219 146.721710,79.378242 147.089478,80.557938 
z"/>
<path fill="#121214" opacity="1.000000" stroke="none" 
	d="
M116.933128,83.170097 
	C116.942474,82.716064 116.951813,82.262024 116.961182,81.467377 
	C117.994507,85.461960 119.027802,89.797173 120.110275,94.580612 
	C119.828682,97.098465 119.497910,99.168083 118.832321,101.387421 
	C118.054237,100.703560 117.610977,99.869987 117.366608,98.674072 
	C117.354713,93.264526 117.143921,88.217316 116.933128,83.170097 
z"/>
<path fill="#FFFFFE" opacity="1.000000" stroke="none" 
	d="
M86.881012,331.806824 
	C86.828979,309.156433 86.795425,286.505981 86.699333,263.855804 
	C86.688484,261.296753 87.435440,260.349274 90.244110,259.743378 
	C107.996117,255.914017 124.538544,261.527985 141.035065,266.337738 
	C146.631989,267.969574 151.411636,272.389282 156.580429,275.509094 
	C161.711411,278.606049 167.219971,281.208771 171.922516,284.854340 
	C179.482544,290.715088 187.886978,295.792877 192.950623,304.396606 
	C193.156693,304.746735 193.826981,304.823639 194.626587,305.595337 
	C194.965485,367.683960 194.958771,429.205078 194.952057,490.726227 
	C187.639572,484.119415 180.246124,477.599487 173.035599,470.883209 
	C164.514938,462.946655 153.934586,458.813599 143.745453,453.661072 
	C131.039536,447.235809 117.509308,446.325409 104.018745,444.567200 
	C100.376785,444.092560 96.517761,445.397034 92.746033,445.754852 
	C90.970795,445.923248 89.166351,445.783691 86.712570,445.783691 
	C86.712570,427.188416 86.712570,408.926575 87.070404,390.070404 
	C87.894775,389.030273 88.290276,388.331238 88.838715,388.177399 
	C95.204697,386.391785 96.340355,384.649445 95.462891,378.085602 
	C95.181465,375.980469 94.971588,373.840576 95.013077,371.722137 
	C95.149734,364.744141 95.453651,357.769409 95.595871,350.791443 
	C95.618896,349.661713 95.025665,348.531830 94.931030,347.384338 
	C94.800148,345.797546 94.546547,344.115265 94.910637,342.610626 
	C97.051895,333.761658 95.750542,331.939575 86.881012,331.806824 
z"/>
<path fill="#E7EBF0" opacity="1.000000" stroke="none" 
	d="
M195.251923,490.578552 
	C194.958771,429.205078 194.965485,367.683960 194.968567,305.712158 
	C198.700577,301.403900 202.128784,297.174744 206.240784,293.771942 
	C213.171616,288.036438 220.391144,282.616028 227.783157,277.486664 
	C231.172104,275.135010 235.782867,274.425995 238.915939,271.849121 
	C244.853973,266.965240 251.809967,265.065186 258.896881,263.185852 
	C262.054535,262.348511 265.204315,261.031799 268.401886,260.883118 
	C276.384949,260.511902 284.161621,256.437592 292.338440,259.473633 
	C292.940338,259.697113 293.657166,259.613068 294.320862,259.667999 
	C302.936035,260.380585 302.945770,260.380432 302.934631,268.845184 
	C302.907440,289.510986 302.870331,310.176819 302.409729,331.321808 
	C301.484314,331.817596 300.986481,331.840271 300.488373,331.849823 
	C293.177673,331.990112 291.131104,335.537628 293.975586,342.057892 
	C294.795929,343.938416 294.444214,347.006195 293.419952,348.861816 
	C291.758423,351.871918 291.528931,354.109100 293.599457,356.984985 
	C294.517670,358.260376 294.740540,360.611389 294.282379,362.183716 
	C293.308594,365.525513 291.324982,368.434692 294.173279,372.068329 
	C295.045441,373.180939 293.670471,375.993561 293.453491,378.041382 
	C293.287994,379.603027 293.022888,381.247681 293.327393,382.748871 
	C294.478333,388.423401 299.215912,386.699829 302.877777,387.163635 
	C302.877777,406.588837 302.877777,426.014038 302.877777,445.820007 
	C300.475555,445.820007 298.612366,446.155426 296.915955,445.765442 
	C286.161163,443.293060 275.502289,445.355377 265.014282,447.021912 
	C258.341766,448.082153 251.893951,451.096619 245.593262,453.810364 
	C238.859177,456.710724 232.068253,459.749847 225.942184,463.716797 
	C219.520279,467.875336 213.696396,473.022583 207.916992,478.086761 
	C203.545959,481.916931 199.655899,486.296051 195.251923,490.578552 
z"/>
<path fill="#344B5E" opacity="1.000000" stroke="none" 
	d="
M189.381897,142.602051 
	C192.853958,142.272934 196.142380,142.303940 199.813324,142.316345 
	C205.005569,144.820312 210.245514,146.777206 214.508072,150.019180 
	C219.076096,153.493454 223.372803,157.722260 226.662064,162.411484 
	C241.197113,183.132889 242.473938,206.573029 238.852631,230.507858 
	C237.179016,241.569580 232.636398,251.920044 226.083191,261.180969 
	C225.556183,261.925720 224.510193,262.303223 223.314011,262.556519 
	C224.111832,258.906891 225.377960,255.577072 226.475708,252.192657 
	C229.761917,242.061035 231.361938,231.751663 229.894547,221.919724 
	C215.359344,214.268433 203.829605,204.591858 196.455536,189.473114 
	C191.831757,198.623901 188.791397,207.289810 183.083984,214.797058 
	C177.223190,222.506027 171.000412,229.208664 162.082581,233.216187 
	C160.985977,233.709000 159.534592,235.281677 159.627670,236.216553 
	C159.962448,239.579132 160.702240,242.935989 161.632233,246.197128 
	C163.332840,252.160522 165.278061,258.054138 167.121277,263.976837 
	C164.498871,260.915070 161.292023,258.182770 159.349838,254.737518 
	C147.612915,233.917480 146.688751,211.358475 151.185165,188.744186 
	C154.911667,170.002060 164.304123,154.221130 182.360779,145.255020 
	C184.493561,144.195984 186.912140,143.712479 189.381897,142.602051 
z"/>
<path fill="#FDCF5C" opacity="1.000000" stroke="none" 
	d="
M167.413284,264.148285 
	C165.278061,258.054138 163.332840,252.160522 161.632233,246.197128 
	C160.702240,242.935989 159.962448,239.579132 159.627670,236.216553 
	C159.534592,235.281677 160.985977,233.709000 162.082581,233.216187 
	C171.000412,229.208664 177.223190,222.506027 183.083984,214.797058 
	C188.791397,207.289810 191.831757,198.623901 196.455536,189.473114 
	C203.829605,204.591858 215.359344,214.268433 229.894547,221.919724 
	C231.361938,231.751663 229.761917,242.061035 226.475708,252.192657 
	C225.377960,255.577072 224.111832,258.906891 222.982788,262.663391 
	C217.959793,268.317291 213.053497,273.761475 207.686249,278.705200 
	C206.067184,280.196472 203.168472,280.298492 199.995453,281.034241 
	C196.070038,281.051758 193.005096,281.071899 189.940170,281.092041 
	C181.976181,281.432953 177.492233,275.790070 172.672089,270.875488 
	C170.767929,268.934021 169.346512,266.519073 167.413284,264.148285 
z"/>
<path fill="#FECF5F" opacity="1.000000" stroke="none" 
	d="
M303.324829,387.123169 
	C299.215912,386.699829 294.478333,388.423401 293.327393,382.748871 
	C293.022888,381.247681 293.287994,379.603027 293.453491,378.041382 
	C293.670471,375.993561 295.045441,373.180939 294.173279,372.068329 
	C291.324982,368.434692 293.308594,365.525513 294.282379,362.183716 
	C294.740540,360.611389 294.517670,358.260376 293.599457,356.984985 
	C291.528931,354.109100 291.758423,351.871918 293.419952,348.861816 
	C294.444214,347.006195 294.795929,343.938416 293.975586,342.057892 
	C291.131104,335.537628 293.177673,331.990112 300.488373,331.849823 
	C300.986481,331.840271 301.484314,331.817596 302.407379,331.774780 
	C303.825714,331.810699 304.835602,332.020172 305.809387,331.910187 
	C310.803467,331.345978 312.105652,333.975189 312.065247,338.439453 
	C311.940704,352.201111 311.991577,365.964813 312.038300,379.727478 
	C312.061981,386.705078 311.915009,386.891235 303.324829,387.123169 
z"/>
<path fill="#FFCF5F" opacity="1.000000" stroke="none" 
	d="
M86.448853,331.836853 
	C95.750542,331.939575 97.051895,333.761658 94.910637,342.610626 
	C94.546547,344.115265 94.800148,345.797546 94.931030,347.384338 
	C95.025665,348.531830 95.618896,349.661713 95.595871,350.791443 
	C95.453651,357.769409 95.149734,364.744141 95.013077,371.722137 
	C94.971588,373.840576 95.181465,375.980469 95.462891,378.085602 
	C96.340355,384.649445 95.204697,386.391785 88.838715,388.177399 
	C88.290276,388.331238 87.894775,389.030273 87.080528,389.582458 
	C85.492981,388.802124 84.358353,387.401978 82.994087,387.122375 
	C78.396027,386.180145 76.922997,384.174194 77.203400,379.320740 
	C77.712143,370.514832 78.193108,361.753845 77.593590,352.858093 
	C77.242409,347.647308 77.732895,342.274017 77.350128,336.898132 
	C76.902687,330.613892 82.281982,332.166351 86.448853,331.836853 
z"/>
<path fill="#F9A264" opacity="1.000000" stroke="none" 
	d="
M190.002716,281.475159 
	C193.005096,281.071899 196.070038,281.051758 199.594818,281.057251 
	C198.036240,284.951965 193.388809,285.312714 190.002716,281.475159 
z"/>
<path fill="#1C1716" opacity="1.000000" stroke="none" 
	d="
M185.040573,97.375351 
	C185.075363,90.636139 185.075363,84.338921 185.075363,78.041695 
	C185.631699,78.061607 186.188049,78.081528 186.744385,78.101440 
	C186.744385,88.362114 186.744385,98.622795 186.744385,108.883469 
	C186.297607,109.057129 185.850815,109.230782 185.404037,109.404434 
	C181.981705,101.696960 178.559372,93.989487 175.137039,86.282005 
	C174.682114,86.322487 174.227173,86.362961 173.772247,86.403435 
	C173.772247,93.804871 173.772247,101.206299 173.772247,108.607735 
	C173.263000,108.594009 172.753754,108.580292 172.244507,108.566574 
	C172.244507,98.426781 172.244507,88.286987 172.244507,76.961060 
	C173.727158,78.415810 174.981796,79.138817 175.469223,80.210701 
	C177.927322,85.616241 180.129715,91.138046 182.586411,96.544258 
	C182.884277,97.199738 184.175140,97.403969 185.040573,97.375351 
z"/>
<path fill="#1D1817" opacity="1.000000" stroke="none" 
	d="
M200.908051,81.806839 
	C200.275925,88.860588 200.130585,95.798164 199.894379,102.732643 
	C199.824005,104.798782 199.498947,106.856247 199.290588,108.917686 
	C198.748520,108.902275 198.206467,108.886864 197.664398,108.871452 
	C197.664398,101.964890 197.591187,95.057228 197.693726,88.152191 
	C197.749130,84.421013 197.919479,80.922531 192.462128,81.498184 
	C191.869781,81.560677 191.120346,80.133781 190.443771,79.397736 
	C191.279358,78.850952 192.099258,77.861725 192.953140,77.831474 
	C197.427322,77.672943 201.910095,77.757385 206.788528,77.757385 
	C207.750702,83.256432 203.469360,81.018143 200.908051,81.806839 
z"/>
<path fill="#191514" opacity="1.000000" stroke="none" 
	d="
M221.021881,90.949638 
	C222.201935,95.281303 223.520782,99.582710 224.475891,103.963425 
	C224.755493,105.245911 224.000778,106.753891 223.720123,108.158524 
	C223.232254,108.099823 222.744385,108.041122 222.256516,107.982422 
	C221.658646,105.142448 221.060760,102.302475 220.488068,99.582123 
	C212.322266,95.424393 210.281982,101.630867 208.338425,108.001892 
	C207.751480,107.556282 207.164536,107.110680 206.577591,106.665077 
	C208.347260,100.364319 210.116928,94.063568 212.192352,87.310402 
	C212.665741,86.905258 212.833359,86.952515 213.026428,87.442429 
	C213.051910,90.125671 213.051910,92.366257 213.051910,94.375298 
	C216.788239,95.460518 218.432602,94.480850 218.456390,90.969971 
	C219.556351,90.920982 220.289108,90.935310 221.021881,90.949638 
z"/>
<path fill="#BC9E98" opacity="1.000000" stroke="none" 
	d="
M213.000961,86.999771 
	C212.833359,86.952515 212.665741,86.905258 212.243561,86.916718 
	C212.397949,84.409546 212.639008,81.798546 213.309509,79.302933 
	C213.535385,78.462143 214.884338,77.344299 215.660477,77.388901 
	C216.477127,77.435844 217.620529,78.586990 217.928665,79.491539 
	C219.125275,83.004318 220.046539,86.610893 221.046082,90.566093 
	C220.289108,90.935310 219.556351,90.920982 218.211288,90.703186 
	C216.066315,89.333069 214.533646,88.166420 213.000961,86.999771 
z"/>
<path fill="#705E5A" opacity="1.000000" stroke="none" 
	d="
M152.965393,107.433563 
	C157.426407,107.030708 161.858810,107.056061 166.771454,107.048065 
	C167.108353,107.906967 166.965820,109.578255 166.821548,109.578400 
	C162.301590,109.583061 157.780884,109.436722 153.263992,109.232185 
	C153.134506,109.226326 153.044968,108.338402 152.965393,107.433563 
z"/>
<path fill="#141110" opacity="1.000000" stroke="none" 
	d="
M265.990295,102.964706 
	C266.202576,103.826805 266.414856,104.688904 266.858276,105.796883 
	C263.300262,108.121048 259.414856,109.096489 255.513382,106.486473 
	C254.754700,105.978935 254.504623,104.711098 253.987579,103.405457 
	C254.211090,102.800423 254.466980,102.583900 255.227417,102.279434 
	C256.544434,102.708420 257.693115,103.034920 258.112122,103.774712 
	C260.090942,107.268524 261.850586,107.259148 263.880890,103.830994 
	C264.190094,103.308922 265.267944,103.242096 265.990295,102.964706 
z"/>
<path fill="#141212" opacity="1.000000" stroke="none" 
	d="
M117.167717,99.036407 
	C117.610977,99.869987 118.054237,100.703560 118.683365,101.753510 
	C117.492661,103.652222 116.116074,105.334557 114.368263,106.980980 
	C113.739708,106.123184 113.482376,105.301292 113.266800,103.869492 
	C114.594940,101.851860 115.881332,100.444138 117.167717,99.036407 
z"/>
<path fill="#B1A9C0" opacity="1.000000" stroke="none" 
	d="
M127.543900,81.845215 
	C129.239609,81.572342 130.562012,81.485802 131.883667,81.496056 
	C134.588882,81.517059 137.215820,81.314865 137.190643,85.451324 
	C137.166351,89.441391 135.750366,91.296974 131.656158,90.843735 
	C130.355667,90.699760 129.025803,90.821220 127.170242,90.821220 
	C127.170242,87.807457 127.170242,84.941414 127.543900,81.845215 
z"/>
<path fill="#D0B0A9" opacity="1.000000" stroke="none" 
	d="
M266.191040,102.647446 
	C265.267944,103.242096 264.190094,103.308922 263.880890,103.830994 
	C261.850586,107.259148 260.090942,107.268524 258.112122,103.774712 
	C257.693115,103.034920 256.544434,102.708420 255.373627,102.073769 
	C254.775558,97.150505 254.535797,92.344963 254.910919,87.256813 
	C259.603363,89.643517 263.680939,92.312820 267.758514,94.982132 
	C267.302917,97.431488 266.847351,99.880829 266.191040,102.647446 
z"/>
<path fill="#B2B1D3" opacity="1.000000" stroke="none" 
	d="
M267.850952,94.548286 
	C263.680939,92.312820 259.603363,89.643517 255.154037,86.917862 
	C254.458298,82.687592 257.373718,81.522972 260.545135,81.363388 
	C263.853668,81.196899 267.185150,81.708153 267.299072,86.354103 
	C267.362579,88.944588 267.718964,91.527901 267.850952,94.548286 
z"/>
<path fill="#B2B1D4" opacity="1.000000" stroke="none" 
	d="
M117.366608,98.674072 
	C115.881332,100.444138 114.594940,101.851860 113.134766,103.572296 
	C110.286232,106.659790 105.894547,105.421333 105.222565,100.913986 
	C104.414108,95.491180 104.602142,89.789688 105.379379,84.354805 
	C105.566711,83.044785 109.702232,81.983376 112.161354,81.451324 
	C113.340843,81.196136 114.845131,82.442146 116.567719,83.089188 
	C117.143921,88.217316 117.354713,93.264526 117.366608,98.674072 
z"/>
<path fill="#D5B3AD" opacity="1.000000" stroke="none" 
	d="
M213.026428,87.442429 
	C214.533646,88.166420 216.066315,89.333069 217.844116,90.766495 
	C218.432602,94.480850 216.788239,95.460518 213.051910,94.375298 
	C213.051910,92.366257 213.051910,90.125671 213.026428,87.442429 
z"/>
</svg>